HIERARCHY
ROOT Hips
{
  OFFSET 13.6774 106.653 -34.4427
  CHANNELS 6 Xposition Yposition Zposition Zrotation Xrotation Yrotation
  JOINT ToSpine
  {
    OFFSET -2.69724 7.43032 -0.144315
    CHANNELS 3 Zrotation Xrotation Yrotation
    JOINT Spine
    {
      OFFSET -0.0310711 10.7595 1.96963
      CHANNELS 3 Zrotation Xrotation Yrotation
      JOINT Spine1
      {
        OFFSET 19.9056 3.91189 0.764692
        CHANNELS 3 Zrotation Xrotation Yrotation
        JOINT Neck
        {
          OFFSET 25.9749 7.03908 -0.130764
          CHANNELS 3 Zrotation Xrotation Yrotation
          JOINT Head
          {
            OFFSET 9.52751 0.295786 -0.907742
            CHANNELS 3 Zrotation Xrotation Yrotation
            End Site
            {
              OFFSET 16.4037 0.713936 2.7358
            }
          }
        }
        JOINT LeftShoulder
        {
          OFFSET 17.7449 4.33886 11.7777
          CHANNELS 3 Zrotation Xrotation Yrotation
          JOINT LeftArm
          {
            OFFSET 0.911315 1.27913 9.80584
            CHANNELS 3 Zrotation Xrotation Yrotation
            JOINT LeftForeArm
            {
              OFFSET 28.6126 1.18197 -3.53199
              CHANNELS 3 Zrotation Xrotation Yrotation
              JOINT LeftHand
              {
                OFFSET 27.5088 0.0218783 0.327423
                CHANNELS 3 Zrotation Xrotation Yrotation
                End Site
                {
                  OFFSET 18.6038 -0.000155887 0.382096
                }
              }
            }
          }
        }
        JOINT RightShoulder
        {
          OFFSET 17.1009 2.89543 -12.2328
          CHANNELS 3 Zrotation Xrotation Yrotation
          JOINT RightArm
          {
            OFFSET 1.4228 0.178766 -10.211
            CHANNELS 3 Zrotation Xrotation Yrotation
            JOINT RightForeArm
            {
              OFFSET 28.733 1.87905 2.64907
              CHANNELS 3 Zrotation Xrotation Yrotation
              JOINT RightHand
              {
                OFFSET 27.4588 0.290562 -0.101845
                CHANNELS 3 Zrotation Xrotation Yrotation
                End Site
                {
                  OFFSET 17.8396 -0.255518 -0.000602873
                }
              }
            }
          }
        }
      }
    }
  }
  JOINT LeftUpLeg
  {
    OFFSET -5.61296 -2.22332 -10.2353
    CHANNELS 3 Zrotation Xrotation Yrotation
    JOINT LeftLeg
    {
      OFFSET 2.56703 -44.7417 -7.93097
      CHANNELS 3 Zrotation Xrotation Yrotation
      JOINT LeftFoot
      {
        OFFSET 3.16933 -46.5642 -3.96578
        CHANNELS 3 Zrotation Xrotation Yrotation
        JOINT LeftToeBase
        {
          OFFSET 0.346054 -6.02161 12.8035
          CHANNELS 3 Zrotation Xrotation Yrotation
          End Site
          {
            OFFSET 0.134235 -1.35082 5.13018
          }
        }
      }
    }
  }
  JOINT RightUpLeg
  {
    OFFSET -5.7928 -1.72406 10.6446
    CHANNELS 3 Zrotation Xrotation Yrotation
    JOINT RightLeg
    {
      OFFSET -2.57161 -44.7178 -7.85259
      CHANNELS 3 Zrotation Xrotation Yrotation
      JOINT RightFoot
      {
        OFFSET -3.10148 -46.5936 -4.03391
        CHANNELS 3 Zrotation Xrotation Yrotation
        JOINT RightToeBase
        {
          OFFSET -0.0828122 -6.13587 12.8035
          CHANNELS 3 Zrotation Xrotation Yrotation
          End Site
          {
            OFFSET -0.131328 -1.35082 5.13018
          }
        }
      }
    }
  }
}
MOTION
Frames: 21
Frame Time: 0.03333333333333333
0.0000 93.1000 0.0000 -52.9310 -3.6025 170.7445 -70.9898 0.1265 87.9954 148.2090 68.4278 -62.0357 1.1362 29.4793 -6.6658 -163.2331 25.4562 170.7460 -155.2947 63.9521 176.9346 1.9908 -3.2565 -24.4262 -91.6119 50.0039 -57.5114 -4.8657 27.6586 -9.2672 9.3316 -1.0791 -5.7511 -0.0152 1.3101 12.1795 -93.5837 -51.2182 114.0455 13.6079 0.7976 100.9719 10.3583 0.0057 4.1939 7.2792 1.3686 97.8224 -95.4637 84.8284 81.3488 4.2363 0.5586 -1.2625 -8.8214 -39.9250 13.8673 -65.3804 3.6467 94.1985 2.9400 42.3649 11.9828 -8.1504 -8.2034 0.9993 -19.0011 18.6898 20.5262 
0.0000 93.1000 0.0000 -52.0826 -5.1423 172.0716 -70.9898 -0.0416 87.9913 141.0850 69.2520 -54.5372 3.8048 28.3332 -9.9518 -161.2124 25.0353 168.6718 -153.0051 63.9738 174.8522 1.2344 -3.1388 -24.5395 -86.6333 49.0416 -67.5244 -4.1248 22.4392 -10.0758 8.4628 -1.2836 -6.2931 -0.6051 0.4923 13.3332 -85.6984 -49.9047 114.8775 14.8999 2.3912 103.1059 9.1653 0.1690 4.3751 2.5712 1.8889 101.3162 -35.7703 83.5375 23.7117 3.9998 1.8402 -0.8268 -8.8187 -38.6368 13.5003 -67.0019 3.4051 90.0844 1.5729 43.8659 7.1148 -4.5464 0.5656 -0.1561 -35.9604 43.8332 40.4358 
0.0000 93.1000 0.0000 -53.7447 -4.4697 174.0883 -70.9993 0.0355 87.9940 136.2666 69.8876 -50.4353 7.8072 27.3649 -10.3001 -161.3009 23.9250 168.9121 -154.0730 62.9180 175.7930 1.4934 -2.4161 -27.6653 -69.6584 46.8843 -90.5732 -0.7427 8.8266 -17.1073 9.2264 -1.1254 -6.8913 -0.4557 0.7210 17.2447 -75.2747 -49.7373 114.2209 20.3119 0.4315 95.0781 8.2324 -0.0217 3.5775 -6.5816 0.9665 100.8523 -24.8911 79.8217 11.9304 4.3694 2.6151 -0.7949 -9.4080 -37.4512 15.2239 -61.3020 5.3994 88.3109 4.8479 65.5269 -4.0100 -3.9686 1.0164 -0.4715 -30.1860 48.0010 19.6777 
0.0000 93.1000 0.0000 -56.1696 -5.0514 171.2129 -71.0095 0.1587 87.9956 135.1159 69.1272 -53.6364 9.3208 25.7730 -9.9799 -163.0421 23.0242 169.9741 -155.2356 62.1370 176.6389 0.7196 -0.7850 -29.5520 -71.9926 39.3789 -100.6100 3.6417 3.8211 -24.0661 10.1791 -0.8472 -6.5933 -0.8791 0.7888 21.2474 -65.9016 -51.9546 111.9821 20.1334 -4.7516 77.6460 7.9402 -0.2292 2.3545 -19.5268 -3.7388 101.1035 -13.5212 74.2192 -2.5085 3.6890 1.2556 -0.1180 -9.5300 -42.2328 13.1746 -52.5557 5.5745 89.8592 108.0039 85.4713 -109.2547 -5.2628 -0.5827 -0.7025 -17.1423 41.0730 -2.1801 
0.0000 93.1000 0.0000 -57.9426 -7.9561 165.9285 -71.0010 -0.1673 88.0046 133.3714 67.2565 -57.8929 6.8122 24.9233 -8.0544 -165.3142 22.9127 171.8430 -158.9522 62.0003 -180.2560 2.7165 0.9100 -30.6111 -78.8801 31.4074 -111.5023 4.1013 3.7172 -27.2163 12.6674 -1.1847 -6.6383 0.1630 0.6520 24.9695 -63.9302 -55.8149 104.6422 19.6174 -12.8365 54.9594 8.5433 0.0631 2.4920 -28.6321 -10.8473 100.7518 -10.2169 69.0947 -4.4380 5.1038 1.4583 -1.1869 -10.7089 -46.5195 11.0824 -38.7834 2.2598 91.5082 167.6817 66.8822 -167.0189 -6.4662 -3.7802 0.5427 -1.4429 29.6386 -20.0582 
0.0000 93.1000 0.0000 -56.0084 -13.4907 167.2180 -71.0073 -0.1206 87.9986 128.0037 65.7939 -54.3762 2.3156 23.2174 -5.0237 -165.2238 23.2063 171.8572 -160.2384 62.6424 -179.2295 1.7648 1.4658 -29.0386 -90.9138 31.9857 -120.4035 8.0532 6.9495 -37.7414 13.4443 -0.9124 -6.1089 -0.3396 0.7633 26.6507 -73.9506 -61.1926 82.1874 20.7106 -20.1789 45.2264 8.8956 -0.3894 1.4905 -34.6242 -16.3748 94.2562 -8.0279 65.0437 -7.1573 4.8323 0.0597 -0.8383 -11.1253 -47.3989 10.7435 -18.4807 -0.6949 92.0903 169.8714 52.9421 -172.1980 -7.5897 -5.8422 1.0795 6.4642 8.1021 -24.3200 
0.0000 93.1000 0.0000 -55.1130 -13.8780 170.2140 -70.9961 -0.1775 87.9962 124.1234 65.7569 -49.8983 -1.0220 21.5912 -1.8535 -164.3145 22.0895 171.8509 -160.5605 61.9673 -179.8824 4.1768 1.3295 -26.2157 -96.0769 37.9613 -127.4986 13.9843 9.2461 -53.1717 15.1303 -1.5483 -6.0856 0.9419 1.0949 24.9075 -74.1506 -65.3930 67.0005 20.8712 -20.1849 45.8135 8.7403 0.0815 2.4526 -45.8213 -13.0998 90.5639 -5.4939 57.0352 -12.7432 6.4842 -2.3507 -2.5247 -10.5750 -46.9279 11.9278 -3.0244 1.7181 93.0627 169.7716 54.0052 -171.1160 -9.3333 -5.9186 1.9564 11.2770 -11.5707 -20.4316 
0.0000 93.1000 0.0000 -53.8945 -13.0128 176.0149 -71.0110 -0.5299 87.9917 119.0754 66.0221 -41.8720 -2.9342 19.7150 1.1533 -163.3957 19.9556 173.3368 -157.5216 59.1451 175.7824 2.3028 1.5051 -22.9464 -97.1325 40.3109 -127.5508 21.7440 7.7623 -70.4026 14.6902 -1.7631 -5.6128 -0.4131 2.1174 22.0486 -74.0813 -68.5497 55.9772 16.0227 -13.7728 45.1321 8.5961 0.2919 2.4060 -59.0055 -8.9595 83.6386 -3.8102 45.3001 -13.1691 3.4329 -3.4567 -0.9931 -8.0143 -34.8354 12.6090 6.1125 1.8646 91.8700 166.6669 67.2443 -165.9067 -9.5565 -6.8889 1.2592 11.3342 -22.7007 -18.0453 
0.0000 93.1000 0.0000 -55.1780 -9.0065 -179.6844 -71.0069 -0.2264 87.9853 121.2445 65.5369 -39.1164 -2.1878 19.4195 4.1275 -164.1432 18.7435 172.1535 -155.3140 57.1546 170.8865 1.9084 2.2781 -21.9633 -90.8060 39.6517 -125.4005 24.1645 3.9355 -80.2915 15.3808 -1.7305 -7.1722 -1.1131 3.7563 20.9458 -79.7943 -67.5364 48.2521 5.8978 -4.7053 42.0289 7.4983 0.0191 1.8455 -69.4217 -1.5487 85.0419 0.3152 37.9188 -14.8679 -2.1726 2.7974 0.6127 -4.8806 -3.5026 8.3481 5.2349 2.8067 88.0902 98.6400 85.9534 -96.0677 -8.1206 -8.0160 1.4922 11.4936 -25.5784 -16.1562 
0.0000 93.1000 0.0000 -55.7553 -5.3435 -178.8838 -71.0065 -0.0762 87.9925 123.1502 65.6090 -39.8716 -0.1245 19.2168 5.5612 -166.3568 17.8509 173.0227 -154.1039 54.8917 169.6427 2.2014 2.1907 -22.9920 -83.1647 39.3132 -123.5433 22.7673 3.8808 -78.7596 14.0299 -1.5118 -7.4181 -0.9530 3.5967 23.8747 -81.9961 -61.2384 50.8655 -0.8951 2.1442 41.2387 6.5820 -0.1008 1.7038 -69.5944 -2.7302 79.7628 -4.1376 50.3053 -7.3595 -1.7747 6.4622 0.4462 -5.1686 -7.1744 13.3727 1.1535 2.6244 85.8317 8.8151 72.5995 -4.0397 -7.5788 -4.9010 1.2300 11.0400 -29.1014 -16.4281 
0.0000 93.1000 0.0000 -58.9088 -0.9405 -177.6949 -71.0060 -0.2369 87.9962 127.1309 64.8923 -40.4280 3.5716 20.1181 4.3138 -167.1595 16.1032 173.1360 -152.1864 52.9226 167.4663 2.2899 1.6223 -25.1365 -77.9537 39.0401 -119.4029 18.1654 8.6763 -62.0310 12.6888 -1.5732 -7.2495 -0.8222 2.7622 26.0629 -82.8465 -56.9771 61.1667 -3.2503 5.1335 43.8943 6.7588 0.1003 2.2932 -64.3601 -4.7551 80.8150 -15.2068 75.8820 5.8892 -1.3198 7.5933 0.3641 -5.5598 -14.7356 14.3285 -4.0986 2.6458 80.2257 7.6303 68.9168 -0.9678 -7.3832 -4.6605 0.8212 10.1454 -24.3350 -13.7109 
0.0000 93.1000 0.0000 -63.9996 4.7582 -174.7497 -70.9908 0.0969 87.9960 137.1713 63.9618 -47.0684 7.2988 21.7492 3.1688 -166.1360 15.0309 174.9849 -149.0697 51.7786 166.7329 2.7571 1.5592 -28.1667 -73.2895 40.0146 -116.3746 13.8417 16.8055 -37.2403 11.5816 -1.3148 -6.7735 -0.5037 1.5503 28.1323 -85.1718 -51.6801 72.7688 -3.0703 4.6720 46.8632 6.6319 0.0591 2.6909 -56.8629 -1.7377 84.7019 -157.6111 77.1231 149.1560 0.7744 8.2266 -0.1607 -6.0682 -19.7182 12.9974 -15.9814 6.2850 73.5975 7.7241 69.0488 1.2280 -7.0213 -7.2215 0.5040 8.3744 -9.6676 -15.6673 
0.0000 93.1000 0.0000 -65.7937 10.9301 -169.7924 -70.9886 0.2778 87.9923 145.1264 64.0950 -49.1121 6.5318 22.9484 4.7275 -166.3356 14.8858 175.1590 -148.1985 51.1439 167.8394 2.7560 1.6463 -30.6859 -76.0956 41.9508 -107.4526 6.9030 32.1543 -17.8597 10.3083 -1.0233 -6.3342 -0.2159 0.5673 27.9086 -84.0361 -49.5880 86.8527 -0.9919 1.9985 51.9506 6.7012 -0.1967 3.3928 -42.0626 2.4303 82.1831 -169.8282 58.2976 161.9802 3.9119 6.0758 -1.0257 -6.5331 -22.5128 13.0413 -25.6191 12.4252 69.0604 7.7026 68.4307 4.9525 -6.9775 -6.0769 0.5774 9.3497 -20.7436 -19.1657 
0.0000 93.1000 0.0000 -63.8122 14.2261 -169.7984 -70.9944 0.4020 87.9984 145.1185 65.7467 -47.3378 3.8473 24.2163 5.3098 -166.2641 14.3059 175.0686 -149.0564 50.6425 166.8410 2.5139 1.2337 -30.5722 -82.8955 42.2946 -91.4091 -0.9595 45.8412 -10.9243 8.4702 -0.8099 -5.7952 0.0404 -0.0853 24.3219 -83.8791 -52.9298 95.9762 2.9799 -1.2204 62.8768 7.1531 -0.2082 4.1301 -21.1528 0.9627 77.0158 -170.8652 48.0194 165.8372 5.2911 4.7220 -1.2352 -7.2925 -26.1927 12.4743 -34.0113 15.1789 71.0179 8.7768 68.2337 6.9887 -8.7858 -10.9542 0.9583 11.3950 -29.2847 -18.2475 
0.0000 93.1000 0.0000 -62.7971 17.7583 -169.8508 -70.9987 0.3423 87.9996 145.1946 68.6451 -44.8709 1.5344 25.7225 4.5465 -164.2140 14.5534 173.1274 -147.1294 50.1566 164.8808 1.8828 0.5081 -28.4003 -80.2193 43.9082 -83.6690 -5.2651 49.7335 -8.2066 8.2253 -0.6840 -5.6879 -0.2499 -0.7751 22.5408 -76.8618 -52.2824 107.9129 7.0825 -2.1909 74.9623 7.5627 -0.3416 4.5253 -4.9517 0.1077 76.0175 -170.8184 53.3629 167.9565 6.1354 3.0498 -1.1431 -7.3709 -26.0228 12.0270 -46.9047 17.2893 80.0877 6.7640 62.1223 12.1235 -10.3038 -15.5956 1.3543 11.7683 -31.5704 -16.8231 
0.0000 93.1000 0.0000 -63.8710 16.6054 -174.8854 -71.0016 -0.1054 88.0070 136.1301 71.4005 -41.3297 0.6011 25.3432 5.2204 -160.2528 15.1135 171.9273 -149.3483 51.0154 166.9496 2.2051 -0.5377 -26.3212 -82.8534 46.1463 -74.4030 -13.9187 56.0647 0.6917 9.1532 -1.0377 -5.5413 0.0939 -2.0657 21.0234 -73.9737 -50.9635 109.1391 10.8112 -2.0744 83.1185 8.2751 0.2311 5.8137 2.5737 -2.9561 79.6765 -167.7654 70.2018 168.1147 6.0191 4.8347 -1.1550 -7.7978 -31.0567 10.7477 -63.0255 13.0974 87.7730 3.8092 52.1257 11.8032 -10.9602 -15.0363 1.1086 9.3162 -23.8744 -14.9698 
0.0000 93.1000 0.0000 -65.9017 13.3303 -177.8679 -71.0040 -0.0605 88.0174 132.2294 72.8107 -41.3463 0.6228 24.9266 3.6384 -157.2025 16.1794 171.0788 -149.0922 52.8824 167.0097 1.6901 -1.4504 -24.9481 -75.0891 47.0020 -77.4922 -11.9971 53.2795 -2.2117 7.8043 -0.9202 -6.4232 -0.0741 -3.1937 21.9665 -75.0801 -51.9437 103.1475 14.1002 -1.8362 85.8974 7.6201 0.3528 6.1019 1.9514 -5.8676 84.0028 -28.0094 82.7778 29.2185 4.5873 6.1066 -0.7985 -7.9589 -31.3045 9.6088 -76.8458 7.6445 89.1005 2.5217 43.0696 11.1217 -8.0771 -9.3670 0.3878 -1.7355 5.1010 1.3909 
0.0000 93.1000 0.0000 -67.8828 12.7442 -175.8403 -70.9994 0.1544 88.0212 132.0798 73.4814 -38.2041 3.0794 25.0296 1.3859 -155.2299 15.9417 171.8867 -150.3588 52.9135 169.8242 1.7055 -1.1374 -25.8853 -71.0470 47.0565 -80.5625 -9.2753 46.1621 -5.9464 7.9616 -0.6825 -7.0388 -0.0122 -3.6169 24.7763 -75.8914 -51.5921 96.0555 13.9981 -3.1426 80.9487 6.7044 0.1448 5.2984 -4.0187 -3.9074 86.1066 -4.1901 58.2882 2.8224 1.9398 12.8386 -0.1006 -6.7896 -26.7072 9.2686 -79.8066 6.4478 92.8878 2.6700 51.3003 7.0503 -6.6381 -3.8048 0.0231 -0.5757 20.8705 -14.0747 
0.0000 93.1000 0.0000 -70.9121 15.0283 -175.8785 -70.9922 -0.1006 88.0235 133.2036 72.9674 -41.8534 5.9502 25.2774 -0.4647 -155.2207 15.0273 172.8323 -151.4440 51.8452 169.9881 2.0636 -0.7114 -26.8812 -60.0014 49.9671 -88.4399 -4.0451 30.3854 -12.1741 8.3791 -1.0914 -7.2869 0.1355 -3.2428 24.9917 -75.8337 -51.9503 90.9088 13.7876 -4.8892 71.0335 6.8859 0.2420 4.8189 -12.1920 0.0321 92.8028 -2.8575 46.2901 -2.5061 1.6473 12.1454 -0.1683 -5.9189 -17.1383 10.7523 -74.8792 5.0507 95.8321 7.8236 72.2853 -5.9383 -6.7123 -0.9226 -0.0330 5.5816 8.3821 -21.9197 
0.0000 93.1000 0.0000 -74.8689 15.6276 -176.9452 -70.9837 0.0872 88.0207 132.1008 72.4373 -44.3310 7.9066 24.5482 -0.8008 -153.2370 13.7637 173.1072 -150.2413 51.1154 170.9108 1.9902 0.5118 -27.1144 -54.9270 48.9490 -94.3598 -1.8434 22.0300 -14.3109 9.2959 -1.1331 -7.5056 -0.0735 -3.4798 27.0455 -72.8361 -50.8762 88.9776 13.2336 -7.2624 58.9581 7.3957 0.0337 3.5791 -17.1366 1.9737 100.9293 -3.9265 56.0443 -0.7989 2.8621 13.8756 -0.1828 -6.6093 -17.0580 10.0710 -67.1741 1.8816 98.0611 140.7051 84.0584 -141.9778 -6.9197 -4.1528 0.5570 8.5618 -0.1996 -23.1622 
0.0000 93.1000 0.0000 -77.9510 10.0108 -177.8179 -70.9845 0.1582 88.0173 128.0362 68.3906 -44.2121 8.2632 21.0160 0.6636 -156.2598 13.0306 174.0325 -151.3289 50.0056 169.7175 2.0499 0.8545 -27.6412 -67.4273 44.3017 -94.4042 -3.1112 27.4913 -12.7489 9.0971 -1.0072 -7.3223 0.2715 -3.0743 27.2226 -75.0737 -52.3466 82.9912 15.1129 -11.6982 49.8320 8.1870 0.0267 2.6522 -20.0919 -6.1676 101.0986 -7.1349 69.1295 6.1464 7.3544 14.8136 -1.0840 -9.1719 -32.7352 8.1250 -54.7152 -3.9432 96.9272 166.7139 69.3201 -166.9131 -6.6947 -6.0006 0.8785 9.8339 -15.0008 -24.8602 
